<svg xmlns="http://www.w3.org/2000/svg" viewBox="0 0 20 3" fill="#503191"><path d="M17.057 2.932a.764.764 0 00.507-.21l.2-.191a.433.433 0 01.315-.117 1.012 1.012 0 01.396.087l.866.34s.21.091.386.091h.128a.07.07 0 00.069-.07V2.56a.532.532 0 00-.347-.491l-.187-.074a1.402 1.402 0 01-.419-.244s-.174-.196.028-.387l.77-.73a.515.515 0 00.155-.359s0-.056-.016-.108a.239.239 0 00-.06-.094.29.29 0 00-.202-.073h-.121a.761.761 0 00-.507.208l-.64.607-.704.671V.431A.444.444 0 0017.218 0h-.197a.47.47 0 00-.16.018c-.03.016-.03.045-.03.073v2.778c0 .035.03.063.067.063h.159zM13.376 2.574s-.164-.043-.486-.284l-.343-.257c.06-.036.256-.11.433-.302.11-.119.17-.269.17-.456a.857.857 0 00-.162-.497 1.55 1.55 0 00-.416-.405A2.215 2.215 0 0011.998.1a2.06 2.06 0 00-.625-.1h-1.25a.066.066 0 00-.068.064V2.837c0 .028 0 .058.029.074.04.019.126.021.175.021.07 0 .147-.007.216-.027a.555.555 0 00.265-.189c.119-.147.148-.314.148-.495v-1.2a.32.32 0 01.01-.08c.009-.027.023-.052.023-.052.096-.166.421-.23.772-.147.467.112.605.417.556.548-.053.142-.222.231-.433.231-.1 0-.204-.017-.31-.049a1.78 1.78 0 01-.122-.036c-.025-.007-.074-.029-.11-.029-.035 0-.053.027-.053.08v.314c0 .108.046.204.114.262l1.023.763c.099.068.206.106.321.106l.674.001c.048 0 .071-.03.071-.083v-.204a.085.085 0 00-.048-.072M9.286 2.171h-.898a.944.944 0 01-.357-.077 1.146 1.146 0 01-.289-.207.943.943 0 01-.261-.646c0-.153.046-.272.138-.357a.469.469 0 01.226-.112.805.805 0 01.35 0c.101.02.2.057.298.115.14.084.288.212.388.335h-.935c-.056 0-.084.023-.084.07 0 .09.015.15.053.224a.663.663 0 00.586.335h.87c.152 0 .257-.038.315-.115a.36.36 0 00.075-.245c0-.169-.047-.334-.141-.512a1.775 1.775 0 00-.382-.485A2.006 2.006 0 008.68.138 1.662 1.662 0 008.013 0H6.734a.066.066 0 00-.067.064V1.27c0 .225.046.439.138.64.092.2.217.377.375.528a1.794 1.794 0 001.23.494h1.284c.037 0 .067-.028.067-.063v-.244a.439.439 0 00-.126-.333.483.483 0 00-.349-.12M6.47.431A.444.444 0 006.013 0H5.53a.095.095 0 00-.062.024l-.967.86a1.89 1.89 0 01-1.267.46c-.511 0-.974-.181-1.309-.498L1.21.208A.842.842 0 00.67 0H.09A.089.089 0 000 .086v2.415c0 .238.204.431.456.431H.75a.09.09 0 00.092-.086v-.86c0-.224.193-.41.427-.41.434 0 .746.353 1.027.588.345.288.61.566.938.566.326 0 .592-.278.937-.566.281-.235.593-.587 1.027-.587.232 0 .425.183.427.406V2.5c0 .238.204.43.456.43h.197l.099.001a.09.09 0 00.091-.086V.43M16.47 1.705h-.468c-.172 0-.285.071-.336.212a.455.455 0 01-.16.22.465.465 0 01-.285.084.698.698 0 01-.33-.09 1.202 1.202 0 01-.523-.543.793.793 0 01-.084-.346.47.47 0 01.138-.352.482.482 0 01.348-.135c.16 0 .319.056.475.167a.346.346 0 00.204.068c.072 0 .148-.038.228-.114l.319-.298c.02-.019.027-.036.02-.051a.154.154 0 00-.038-.052 2.058 2.058 0 00-.565-.35A1.68 1.68 0 0014.77 0h-1.255c-.048 0-.072.027-.072.08v1.185c0 .229.049.446.147.652a1.8 1.8 0 00.396.544c.166.156.357.281.571.375.214.093.436.14.664.14.184 0 .355-.03.51-.09.157-.058.293-.14.41-.245.115-.105.207-.23.276-.378.068-.146.107-.306.12-.477.004-.054-.019-.08-.066-.08"/></svg>
